<svg xmlns="http://www.w3.org/2000/svg" viewBox="0 0 68 44" width="68" height="44">
  <rect width="68" height="44" rx="10" fill="#2D2A6E"/>
  <g transform="translate(0 0)">
    <path d="M22 22c0-7-5-13-11-13S0 15 0 22s5 13 11 13 11-6 11-13Zm0 0c0 7 5 13 11 13s11-6 11-13-5-13-11-13-11 6-11 13Z" transform="translate(11 0)" stroke="#0F9E78" stroke-width="3" fill="none"/>
    <circle cx="22" cy="22" r="3.4" fill="#F5F4F0"/>
    <circle cx="44" cy="22" r="3.4" fill="#E8601A"/>
    <circle cx="11" cy="22" r="2.4" fill="#0F9E78"/>
    <circle cx="55" cy="22" r="2.4" fill="#0F9E78"/>
  </g>
</svg>
